<?xml version="1.0" encoding="UTF-8" standalone="no"?>
<!-- Created with Inkscape (http://www.inkscape.org/) -->

<svg
   xmlns:dc="http://purl.org/dc/elements/1.1/"
   xmlns:cc="http://creativecommons.org/ns#"
   xmlns:rdf="http://www.w3.org/1999/02/22-rdf-syntax-ns#"
   xmlns:svg="http://www.w3.org/2000/svg"
   xmlns="http://www.w3.org/2000/svg"
   xmlns:sodipodi="http://sodipodi.sourceforge.net/DTD/sodipodi-0.dtd"
   xmlns:inkscape="http://www.inkscape.org/namespaces/inkscape"
   width="210mm"
   height="297mm"
   viewBox="0 0 744.09448819 1052.3622047"
   id="svg2"
   version="1.1"
   inkscape:version="0.91 r13725"
   sodipodi:docname="logo.svg">
  <defs
     id="defs4" />
  <sodipodi:namedview
     id="base"
     pagecolor="#ffffff"
     bordercolor="#666666"
     borderopacity="1.0"
     inkscape:pageopacity="0.0"
     inkscape:pageshadow="2"
     inkscape:zoom="2.8"
     inkscape:cx="300.8322"
     inkscape:cy="553.14769"
     inkscape:document-units="px"
     inkscape:current-layer="layer1"
     showgrid="false"
     inkscape:window-width="1600"
     inkscape:window-height="837"
     inkscape:window-x="-8"
     inkscape:window-y="-8"
     inkscape:window-maximized="1" />
  <metadata
     id="metadata7">
    <rdf:RDF>
      <cc:Work
         rdf:about="">
        <dc:format>image/svg+xml</dc:format>
        <dc:type
           rdf:resource="http://purl.org/dc/dcmitype/StillImage" />
        <dc:title></dc:title>
      </cc:Work>
    </rdf:RDF>
  </metadata>
  <g
     inkscape:label="Layer 1"
     inkscape:groupmode="layer"
     id="layer1">
    <g
       transform="matrix(0.72945573,0,0,0.72945573,151.02724,345.98169)"
       id="g5">
      <g
         id="g7">
        <path
           style="fill:#93d500"
           inkscape:connector-curvature="0"
           d="m 74.909,189.069 -0.113,0 -29.444,0 c 0.005,0.144 0.009,0.289 0.017,0.433 0.012,0.278 0.032,0.555 0.049,0.833 0.008,0.119 0.013,0.238 0.022,0.356 0.023,0.322 0.051,0.642 0.08,0.962 0.007,0.073 0.013,0.145 0.02,0.215 0.034,0.356 0.073,0.712 0.115,1.065 0.002,0.035 0.006,0.069 0.011,0.103 0.046,0.382 0.095,0.764 0.151,1.144 0,0.004 10e-4,0.01 0.003,0.014 0.339,2.356 0.848,4.69 1.527,6.984 0.003,0.01 0.007,0.019 0.009,0.029 0.106,0.361 0.218,0.72 0.333,1.077 0.007,0.021 0.014,0.042 0.02,0.063 0.006,0.021 0.013,0.042 0.02,0.063 0.105,0.323 0.215,0.645 0.325,0.968 0.029,0.081 0.056,0.163 0.086,0.244 0.099,0.279 0.2,0.558 0.304,0.837 0.048,0.126 0.096,0.251 0.143,0.378 0.09,0.231 0.179,0.46 0.27,0.691 0.069,0.173 0.141,0.346 0.213,0.519 0.074,0.18 0.15,0.359 0.226,0.54 0.094,0.22 0.192,0.439 0.289,0.658 0.058,0.131 0.117,0.261 0.175,0.391 0.12,0.263 0.244,0.526 0.368,0.787 0.041,0.084 0.08,0.168 0.122,0.252 0.145,0.301 0.293,0.599 0.443,0.895 0.025,0.046 0.047,0.091 0.07,0.137 0.169,0.328 0.341,0.656 0.518,0.981 0.008,0.014 0.016,0.028 0.023,0.044 0.037,0.068 0.078,0.133 0.115,0.2 l 25.243,-15.207 0.093,-0.056 c -0.996,-2.099 -1.616,-4.331 -1.846,-6.6 z"
           id="path9" />
        <polygon
           style="fill:#93d500"
           points="46.757,202.649 47.71,202.349 46.748,202.623 "
           id="polygon11" />
        <path
           style="fill:#4d5a31"
           inkscape:connector-curvature="0"
           d="m 82.173,202.638 -0.071,0.071 -20.819,20.82 c 0.107,0.1 0.213,0.201 0.323,0.298 0.194,0.176 0.392,0.351 0.589,0.523 0.102,0.091 0.202,0.181 0.304,0.269 0.236,0.204 0.474,0.403 0.711,0.602 0.065,0.054 0.128,0.107 0.192,0.16 0.267,0.221 0.539,0.438 0.812,0.654 0.035,0.027 0.07,0.055 0.105,0.083 0.295,0.232 0.593,0.458 0.894,0.686 0.013,0.008 0.024,0.016 0.034,0.025 1.254,0.937 2.554,1.815 3.895,2.633 0.046,0.029 0.092,0.056 0.139,0.085 0.255,0.153 0.51,0.304 0.767,0.453 0.157,0.09 0.314,0.179 0.471,0.268 0.148,0.086 0.296,0.168 0.446,0.251 0.27,0.148 0.542,0.295 0.814,0.439 0.037,0.02 0.075,0.04 0.113,0.06 0.757,0.396 1.527,0.764 2.303,1.118 l 0,0 0.739,-1.794 10.471,-25.429 0.039,-0.094 c -1.144,-0.612 -2.24,-1.337 -3.271,-2.181 z"
           id="path13" />
        <path
           style="fill:#6ba43a"
           inkscape:connector-curvature="0"
           d="m 80.005,200.564 c -0.225,-0.25 -0.439,-0.506 -0.649,-0.765 -0.186,-0.23 -0.366,-0.462 -0.54,-0.697 -0.199,-0.27 -0.394,-0.541 -0.578,-0.818 -0.186,-0.278 -0.368,-0.558 -0.54,-0.843 l -25.275,15.226 c 0.388,0.645 0.793,1.273 1.206,1.894 0.014,0.021 0.027,0.044 0.041,0.065 l 0,0 c 0.005,0.008 0.01,0.015 0.015,0.023 0.014,0.02 0.026,0.042 0.04,0.063 10e-4,0.002 0.003,0.004 0.004,0.006 0.033,0.05 0.067,0.098 0.101,0.148 0.002,0.003 0.004,0.006 0.006,0.009 0,0 0,0 0,0 0.001,0.001 0.002,0.003 0.003,0.004 0.439,0.649 0.89,1.288 1.355,1.91 0.01,0.013 0.021,0.027 0.031,0.04 0.01,0.013 0.02,0.026 0.03,0.039 0.202,0.268 0.405,0.535 0.614,0.8 0.027,0.035 0.054,0.069 0.083,0.103 0.214,0.274 0.432,0.544 0.654,0.812 0.052,0.063 0.106,0.127 0.158,0.191 0.2,0.239 0.4,0.477 0.604,0.713 0.087,0.101 0.178,0.202 0.266,0.302 0.174,0.198 0.346,0.395 0.524,0.59 0.097,0.107 0.198,0.215 0.297,0.322 0.045,0.049 0.089,0.097 0.135,0.146 0.13,0.14 0.259,0.28 0.39,0.419 0.052,0.055 0.107,0.109 0.16,0.164 0.23,0.24 0.462,0.48 0.699,0.716 l 20.85,-20.85 c -0.239,-0.239 -0.463,-0.485 -0.684,-0.732 z"
           id="path15" />
        <path
           style="fill:#4d5a31"
           inkscape:connector-curvature="0"
           d="m 107.642,202.627 c -0.229,0.185 -0.461,0.366 -0.697,0.54 l 0.052,0.087 15.202,25.235 c 0.704,-0.46 1.4,-0.934 2.08,-1.432 1.471,-1.085 2.895,-2.261 4.267,-3.527 l -20.821,-20.821 -0.083,-0.082 z"
           id="path17" />
        <path
           style="fill:#93d500"
           inkscape:connector-curvature="0"
           d="m 120.278,229.691 c 0.011,-0.006 0.023,-0.013 0.034,-0.019 l -10e-4,-0.001 c -0.011,0.006 -0.022,0.013 -0.033,0.02 l 0,0 z"
           id="path19" />
        <polygon
           style="fill:#93d500"
           points="120.263,229.699 120.264,229.7 120.264,229.699 120.264,229.699 "
           id="polygon21" />
        <path
           style="fill:#93d500"
           inkscape:connector-curvature="0"
           d="m 120.311,229.671 10e-4,0.001 c 0.066,-0.037 0.133,-0.072 0.199,-0.111 l -0.004,-0.007 c -0.066,0.039 -0.131,0.078 -0.196,0.117 z"
           id="path23" />
        <polygon
           style="fill:#93d500"
           points="120.278,229.691 120.278,229.69 120.269,229.695 "
           id="polygon25" />
        <polygon
           style="fill:#93d500"
           points="120.264,229.699 120.227,229.636 120.263,229.699 "
           id="polygon27" />
        <path
           style="fill:#93d500"
           inkscape:connector-curvature="0"
           d="m 120.278,229.691 0,0 c 0.012,-0.006 0.023,-0.012 0.034,-0.018 l 0,0 c -0.011,0.005 -0.023,0.011 -0.034,0.018 z"
           id="path29" />
        <polygon
           style="fill:#93d500"
           points="120.259,229.702 120.25,229.707 120.25,229.707 120.259,229.702 "
           id="polygon31" />
        <polygon
           style="fill:#93d500"
           points="120.264,229.7 120.263,229.699 120.259,229.702 120.259,229.702 "
           id="polygon33" />
        <path
           style="fill:#93d500"
           inkscape:connector-curvature="0"
           d="m 120.269,229.695 c -0.002,0.001 -0.004,0.002 -0.006,0.003 l 0,0 c 0.005,-0.003 0.01,-0.005 0.015,-0.008 l 0,-0.001 c -0.003,0.003 -0.006,0.005 -0.009,0.006 z"
           id="path35" />
        <path
           style="fill:#93d500"
           inkscape:connector-curvature="0"
           d="m 120.312,229.672 c 0.066,-0.039 0.133,-0.072 0.198,-0.112 -0.065,0.04 -0.132,0.075 -0.198,0.112 l 0,0 z"
           id="path37" />
        <polygon
           style="fill:#93d500"
           points="120.507,229.554 120.506,229.554 120.511,229.56 "
           id="polygon39" />
        <rect
           style="fill:#93d500"
           x="120.25"
           y="229.707"
           transform="matrix(0.8321,-0.5547,0.5547,0.8321,-107.2225,105.2821)"
           width="0"
           height="0"
           id="rect41" />
        <polygon
           style="fill:#93d500"
           points="120.243,229.711 120.244,229.711 120.242,229.712 "
           id="polygon43" />
        <polygon
           style="fill:#93d500"
           points="120.244,229.711 120.25,229.707 120.25,229.707 120.25,229.707 120.244,229.711 "
           id="polygon45" />
        <path
           style="fill:#93d500"
           inkscape:connector-curvature="0"
           d="m 119.99,228.696 -0.516,-0.856 -14.19,-23.555 c -0.287,0.173 -0.581,0.329 -0.874,0.487 -0.296,0.159 -0.594,0.308 -0.896,0.451 -2.726,1.293 -5.677,1.953 -8.632,1.953 -1.936,0 -3.871,-0.28 -5.742,-0.838 -0.319,-0.095 -0.63,-0.22 -0.945,-0.332 -0.315,-0.111 -0.634,-0.207 -0.944,-0.335 l -10.464,25.412 -0.41,0.996 -0.351,0.853 -0.002,0.004 c 0.027,0.011 0.055,0.02 0.082,0.031 0.029,0.012 0.057,0.021 0.086,0.033 l 0.001,0 c 0.001,0 0.002,0.001 0.002,0.001 0.007,0.003 0.014,0.005 0.02,0.008 0.247,0.101 0.496,0.188 0.744,0.285 0.311,0.121 0.622,0.244 0.934,0.358 0.159,0.058 0.317,0.126 0.476,0.182 l 0.001,0 0,0 c 3.278,1.158 6.67,1.968 10.119,2.422 0.135,0.016 0.269,0.035 0.404,0.054 0.141,0.016 0.283,0.03 0.424,0.046 0.266,0.03 0.531,0.061 0.798,0.087 0.066,0.005 0.132,0.011 0.198,0.017 0.327,0.031 0.654,0.059 0.979,0.082 0.111,0.008 0.223,0.013 0.333,0.021 0.287,0.019 0.572,0.037 0.858,0.05 0.175,0.01 0.35,0.015 0.526,0.021 0.227,0.008 0.453,0.017 0.682,0.024 0.327,0.008 0.657,0.011 0.986,0.012 0.078,0 0.155,0.002 0.232,0.003 2.755,0 5.509,-0.229 8.233,-0.686 l 0,0 c 0.046,-0.007 0.091,-0.015 0.138,-0.021 0.288,-0.05 0.576,-0.104 0.864,-0.157 0.164,-0.032 0.329,-0.063 0.491,-0.095 0.168,-0.035 0.337,-0.07 0.505,-0.106 0.281,-0.059 0.561,-0.12 0.842,-0.185 0.05,-0.011 0.101,-0.021 0.152,-0.035 4.141,-0.965 8.14,-2.459 11.897,-4.436 l 10e-4,-0.001 0,0 c 0.246,-0.13 0.486,-0.278 0.731,-0.411 0.292,-0.16 0.582,-0.325 0.872,-0.491 0.201,-0.115 0.404,-0.221 0.603,-0.34 0,0 0.001,-0.001 0.001,-0.001 0.002,-0.001 0.004,-0.003 0.006,-0.004 0,0 0,0 10e-4,0 l 0,0 c 0.003,-0.002 0.006,-0.003 0.009,-0.005 0.002,-0.001 0.003,-0.002 0.004,-0.003 l -0.037,-0.063 0.037,0.063 c 0.002,-0.001 0.004,-0.002 0.006,-0.003 0.003,-0.002 0.006,-0.003 0.009,-0.005 0.011,-0.007 0.022,-0.013 0.033,-0.02 0.065,-0.039 0.13,-0.078 0.195,-0.117 l 0,0 -0.512,-0.855 z"
           id="path47" />
        <path
           style="fill:#93d500"
           inkscape:connector-curvature="0"
           d="m 82.185,171.512 c 0.23,-0.186 0.462,-0.366 0.697,-0.54 L 82.83,170.885 67.629,145.65 c -0.706,0.461 -1.404,0.936 -2.085,1.436 -1.47,1.082 -2.893,2.257 -4.262,3.522 l 20.821,20.821 0.082,0.083 z"
           id="path49" />
        <path
           style="fill:#4d5a31"
           inkscape:connector-curvature="0"
           d="m 59.838,151.994 c -0.237,0.237 -0.461,0.482 -0.692,0.722 -0.231,0.24 -0.466,0.479 -0.692,0.723 -1.538,1.665 -2.944,3.409 -4.212,5.22 -0.061,0.085 -0.122,0.174 -0.182,0.261 -0.143,0.208 -0.284,0.416 -0.423,0.625 -0.145,0.217 -0.289,0.437 -0.429,0.656 -0.053,0.08 -0.105,0.161 -0.156,0.241 -4.789,7.513 -7.355,16.034 -7.7,24.627 -0.013,0.333 -0.02,0.667 -0.027,1 -0.007,0.333 -0.017,0.667 -0.017,1 l 29.488,0 c 0,-0.334 0.031,-0.666 0.048,-1 0.017,-0.334 0.022,-0.668 0.055,-1 0.381,-3.84 1.863,-7.589 4.447,-10.739 0.21,-0.256 0.447,-0.496 0.672,-0.743 0.224,-0.247 0.432,-0.504 0.671,-0.742 L 59.838,151.994 Z"
           id="path51" />
        <path
           style="fill:#4d5a31"
           inkscape:connector-curvature="0"
           d="m 120.681,144.675 c -0.04,-0.025 -0.082,-0.049 -0.122,-0.073 -0.259,-0.159 -0.521,-0.312 -0.783,-0.465 -0.152,-0.088 -0.304,-0.173 -0.457,-0.26 -0.154,-0.086 -0.306,-0.172 -0.461,-0.256 -0.266,-0.146 -0.533,-0.29 -0.801,-0.432 -0.042,-0.021 -0.083,-0.044 -0.126,-0.066 -1.729,-0.904 -3.505,-1.7 -5.318,-2.391 -0.046,-0.019 -0.094,-0.037 -0.141,-0.054 -0.395,-0.148 -0.791,-0.295 -1.19,-0.433 -3.221,-1.125 -6.552,-1.914 -9.936,-2.358 -0.138,-0.019 -0.277,-0.038 -0.415,-0.056 -0.139,-0.017 -0.277,-0.031 -0.415,-0.046 -0.267,-0.031 -0.533,-0.061 -0.801,-0.087 -0.074,-0.007 -0.149,-0.012 -0.224,-0.02 -0.317,-0.029 -0.636,-0.057 -0.953,-0.08 -0.123,-0.009 -0.248,-0.016 -0.371,-0.023 -0.272,-0.018 -0.547,-0.037 -0.819,-0.049 -0.146,-0.008 -0.29,-0.012 -0.434,-0.017 l -0.001,29.444 0,0.115 c 1.517,0.157 3.02,0.48 4.478,0.975 l 21.754,-21.754 c -0.807,-0.56 -1.624,-1.104 -2.464,-1.614 z"
           id="path53" />
        <polygon
           style="fill:#6ba43a"
           points="69.837,145.441 69.837,145.441 69.321,144.585 69.321,144.585 "
           id="polygon55" />
        <polygon
           style="fill:#6ba43a"
           points="69.321,144.585 69.321,144.585 69.318,144.579 "
           id="polygon57" />
        <path
           style="fill:#6ba43a"
           inkscape:connector-curvature="0"
           d="m 93.914,137.485 c -0.333,0.007 -0.667,0.008 -1,0.021 -2.086,0.084 -4.168,0.297 -6.233,0.643 -0.045,0.008 -0.09,0.015 -0.136,0.023 -0.29,0.05 -0.577,0.103 -0.865,0.157 -0.163,0.031 -0.327,0.061 -0.49,0.094 -0.17,0.034 -0.339,0.069 -0.508,0.106 -0.28,0.058 -0.56,0.119 -0.84,0.184 l 0,0 c -0.051,0.011 -0.101,0.023 -0.153,0.034 -4.141,0.966 -8.142,2.461 -11.898,4.438 0,0 0,0 0,0 l -10e-4,0 c -0.245,0.13 -0.484,0.277 -0.728,0.411 -0.292,0.16 -0.582,0.325 -0.872,0.491 -0.215,0.124 -0.434,0.238 -0.648,0.366 -0.002,0.001 -0.005,0.003 -0.007,0.004 0,0 -10e-4,0 -10e-4,0 -0.015,0.009 -0.03,0.017 -0.045,0.026 -0.056,0.034 -0.114,0.062 -0.17,0.096 l 0.003,0.005 0.516,0.857 0,0 14.705,24.412 c 0.287,-0.173 0.581,-0.33 0.874,-0.487 0.295,-0.159 0.594,-0.308 0.895,-0.451 2.1,-1 4.332,-1.62 6.601,-1.85 0.333,-0.034 0.666,-0.062 1,-0.079 0.333,-0.017 0.666,-0.034 1,-0.034 l 0.001,-29.487 c -0.334,0 -0.667,0.014 -1,0.02 z"
           id="path59" />
        <path
           style="fill:#4d5a31"
           inkscape:connector-curvature="0"
           d="m 144.458,184.631 c -0.014,-0.265 -0.03,-0.529 -0.048,-0.795 -0.008,-0.132 -0.015,-0.263 -0.026,-0.397 -0.022,-0.311 -0.048,-0.623 -0.077,-0.934 -0.006,-0.081 -0.014,-0.161 -0.021,-0.242 -0.034,-0.348 -0.071,-0.696 -0.111,-1.043 -0.004,-0.028 -0.007,-0.056 -0.01,-0.084 -0.002,-0.013 -0.003,-0.027 -0.005,-0.04 -0.046,-0.375 -0.096,-0.75 -0.149,-1.124 -0.001,-0.011 -0.002,-0.025 -0.005,-0.035 -0.339,-2.351 -0.847,-4.681 -1.524,-6.972 -0.005,-0.016 -0.009,-0.03 -0.014,-0.044 -0.107,-0.356 -0.216,-0.71 -0.328,-1.063 -0.015,-0.046 -0.031,-0.093 -0.045,-0.14 -0.105,-0.319 -0.211,-0.636 -0.321,-0.954 -0.031,-0.085 -0.061,-0.171 -0.091,-0.258 -0.097,-0.275 -0.197,-0.549 -0.299,-0.823 -0.049,-0.131 -0.099,-0.261 -0.15,-0.391 -0.086,-0.227 -0.175,-0.454 -0.265,-0.678 -0.072,-0.18 -0.144,-0.357 -0.218,-0.534 -0.072,-0.176 -0.146,-0.35 -0.22,-0.526 -0.097,-0.224 -0.195,-0.448 -0.294,-0.671 -0.056,-0.125 -0.112,-0.252 -0.17,-0.378 -0.122,-0.266 -0.247,-0.532 -0.373,-0.797 -0.039,-0.08 -0.077,-0.162 -0.116,-0.242 -0.147,-0.303 -0.296,-0.606 -0.448,-0.906 -0.022,-0.041 -0.043,-0.083 -0.065,-0.125 -0.17,-0.331 -0.344,-0.663 -0.521,-0.99 -0.007,-0.011 -0.012,-0.024 -0.019,-0.035 -0.859,-1.58 -1.802,-3.108 -2.822,-4.578 l -21.761,21.762 c 0.495,1.459 0.817,2.961 0.974,4.477 l 0.116,0 29.444,0 c -0.007,-0.149 -0.011,-0.295 -0.018,-0.44 z"
           id="path61" />
        <path
           style="fill:#6ba43a"
           inkscape:connector-curvature="0"
           d="m 115.03,187.069 c 0,0.334 -0.031,0.666 -0.048,1 -0.016,0.334 -0.022,0.668 -0.055,1 -0.381,3.84 -1.863,7.59 -4.446,10.74 -0.21,0.256 -0.447,0.496 -0.672,0.743 -0.224,0.247 -0.432,0.504 -0.671,0.742 l 20.851,20.85 c 0.237,-0.237 0.46,-0.482 0.691,-0.723 0.231,-0.241 0.466,-0.479 0.691,-0.723 1.543,-1.671 2.953,-3.419 4.224,-5.236 0.051,-0.072 0.099,-0.143 0.148,-0.214 0.155,-0.223 0.306,-0.448 0.458,-0.673 0.133,-0.201 0.266,-0.402 0.395,-0.605 0.064,-0.097 0.128,-0.198 0.19,-0.295 4.782,-7.509 7.341,-16.021 7.685,-24.607 0.013,-0.333 0.02,-0.667 0.027,-1 0.007,-0.333 0.017,-0.666 0.017,-1 l -29.485,0 z"
           id="path63" />
      </g>
      <path
         style="fill:#424143"
         inkscape:connector-curvature="0"
         d="m 153.276,128.706 c -5.395,-5.395 -14.142,-5.395 -19.536,0 -4.304,4.303 -5.164,10.736 -2.601,15.902 L 101.048,174.7 c -5.166,-2.562 -11.599,-1.703 -15.903,2.6 -5.395,5.395 -5.394,14.142 0,19.537 5.396,5.395 14.143,5.393 19.538,-10e-4 4.303,-4.303 5.162,-10.736 2.599,-15.903 l 30.091,-30.091 c 5.167,2.562 11.599,1.703 15.902,-2.601 5.395,-5.392 5.395,-14.14 0.001,-19.535 z"
         id="path65" />
    </g>
    <polygon
       transform="matrix(0.30555556,0,0,0.30555556,185.60405,487.93548)"
       style="fill:#fbbd16"
       points="288.753,145.616 247.914,126.278 234.982,186.663 221.937,113.84 181.323,94.391 181.323,221.04 208.096,234.496 208.096,158.167 222.729,240.603 246.553,252.477 261.867,183.949 261.867,258.923 288.753,272.151 "
       id="polygon3" />
    <polygon
       transform="matrix(0.30555556,0,0,0.30555556,185.60405,487.93548)"
       style="fill:#452e7f"
       points="335.152,123.418 335.152,215.238 394.142,184.709 394.369,219.31 292.611,272.796 292.496,145.583 "
       id="polygon5" />
    <path
       inkscape:connector-curvature="0"
       style="fill:#962444"
       d="m 269.72289,491.65042 -9.21647,8.14887 c 0,0 17.98225,9.24305 20.16666,10.33541 2.18473,1.09206 5.29375,3.19275 1.93264,6.30209 -3.36111,3.10902 -7.05833,2.68888 -9.57917,1.42847 -2.52083,-1.26042 -21.175,-10.67153 -21.175,-10.67153 l -9.49483,8.06636 c 0,0 18.31775,9.32708 21.34306,10.92361 3.025,1.59684 14.28472,5.54584 24.95625,-2.77291 10.67153,-8.31875 9.15933,-11.34375 9.15933,-11.93195 0,-0.58819 -0.25208,-3.69722 -2.10069,-5.62986 -1.84892,-1.93264 -7.22639,-4.70556 -9.49514,-5.88194 -2.26875,-1.17639 -16.49664,-8.31662 -16.49664,-8.31662 z"
       id="path7" />
    <path
       inkscape:connector-curvature="0"
       style="fill:#1d1d1b"
       d="m 290.51617,500.12277 0.002,0.002 c 0.002,0.002 0.004,0.002 0.006,0.004 0.12753,0.11248 0.28123,0.19489 0.44342,0.26095 0.0497,0.0209 0.0968,0.0346 0.14716,0.0497 0.12492,0.0379 0.25441,0.0615 0.3898,0.0694 0.0497,0.004 0.0968,0.0118 0.1478,0.0104 0.0262,0 0.0497,0.006 0.0753,0.005 0.15631,-0.009 0.30739,-0.0405 0.44931,-0.089 0.015,-0.004 0.0268,-0.0144 0.0419,-0.0196 0.15631,-0.0576 0.29496,-0.13996 0.42184,-0.23741 0.0177,-0.0138 0.0412,-0.0183 0.0588,-0.0327 l 7.9437,-6.74357 c 0.60824,-0.51603 0.62001,-1.36298 0.0242,-1.89274 -0.59516,-0.52844 -1.57095,-0.53825 -2.1805,-0.0209 l -4.28316,3.63503 c 0.70372,-5.31128 -0.41399,-10.53231 -0.46893,-10.77887 -2.9215,-16.11893 -17.80695,-27.52566 -33.18226,-25.42823 -0.76127,0.10399 -1.3028,0.67233 -1.3028,1.32046 0,0.0694 0.005,0.13866 0.0177,0.20929 0.13276,0.72989 0.9215,1.22825 1.76323,1.11445 13.69513,-1.86853 26.99917,8.53887 29.66494,23.24184 0.0157,0.0673 1.17331,5.4617 0.37541,10.54081 l -3.33092,-5.60951 c -0.39109,-0.65729 -1.32111,-0.91432 -2.07781,-0.57619 -0.758,0.33747 -1.05166,1.14322 -0.66514,1.80247 l 5.25046,8.84233 c 0.0726,0.11968 0.16351,0.22694 0.26881,0.32112 z"
       id="path6" />
  </g>
</svg>
